<svg width="44" height="44" viewBox="0 0 44 44" fill="none" xmlns="http://www.w3.org/2000/svg">
<circle cx="22" cy="22" r="22" fill="#e2e8f0"/>
<g clip-path="url(#clip0_0_1)">
<path d="M35 35H10V10H35V35Z" fill="#FEC478"/>
<path d="M35 35H22.5V10H35V35Z" fill="#FEC478"/>
<path d="M33.5352 33.5352H11.4648V11.4648H33.5352V33.5352Z" fill="#994C0F"/>
<path d="M33.5352 33.5352H22.5V11.4648H33.5352V33.5352Z" fill="#994C0F"/>
<path d="M20.132 18.8672H21.5616L24.7257 27.1875H23.0616L22.2882 25.1133H19.382L18.6202 27.1875H16.9562L20.132 18.8672ZM21.9952 23.9766L20.8468 20.7071L19.6515 23.9766H21.9952Z" fill="#FEC478"/>
<path d="M25.4874 20.1914V18.6328H27.0577V20.1914H25.4874ZM25.4874 27.1875V21.0468H27.0577V27.1875H25.4874Z" fill="#FEC478"/>
<path d="M22.5 21.3347V25.6813L23.0616 27.1874H24.7257L22.5 21.3347Z" fill="#FEC478"/>
</g>
<defs>
<clipPath id="clip0_0_1">
<path d="M10 20C10 14.4772 14.4772 10 20 10H25C30.5228 10 35 14.4772 35 20V25C35 30.5228 30.5228 35 25 35H20C14.4772 35 10 30.5228 10 25V20Z" fill="white"/>
</clipPath>
</defs>
</svg>
