<svg width="44" height="44" viewBox="0 0 44 44" fill="none" xmlns="http://www.w3.org/2000/svg">
<circle cx="22" cy="22" r="22" fill="#e2e8f0"/>
<path d="M8 33.5279C8 35.5334 9.62557 37.1588 11.6308 37.1588H32.5279C34.5334 37.1588 36.1588 35.5332 36.1588 33.5279V12.6308C36.1588 10.6253 34.5332 9 32.5279 9H11.6308C9.62535 9 8 10.6256 8 12.6308L8 33.5279Z" fill="#563D7C"/>
<path d="M19.6768 21.4556V17.4679H23.187C23.5213 17.4679 23.8436 17.4958 24.1541 17.5515C24.4645 17.6072 24.7391 17.7067 24.9779 17.85C25.2167 17.9933 25.4077 18.1922 25.551 18.4469C25.6942 18.7016 25.7659 19.028 25.7659 19.426C25.7659 20.1423 25.551 20.6597 25.1211 20.9781C24.6913 21.2964 24.1421 21.4556 23.4735 21.4556H19.6768ZM15.9279 14.5547V31.604H24.1899C24.954 31.604 25.6982 31.5085 26.4225 31.3174C27.1468 31.1264 27.7915 30.8319 28.3567 30.4339C28.9218 30.036 29.3715 29.5226 29.7058 28.8938C30.0401 28.265 30.2073 27.5208 30.2073 26.6611C30.2073 25.5946 29.9486 24.6832 29.4312 23.9271C28.9138 23.1709 28.1298 22.6416 27.0792 22.3391C27.8433 21.973 28.4203 21.5034 28.8104 20.9303C29.2004 20.3572 29.3954 19.6409 29.3954 18.7812C29.3954 17.9853 29.2641 17.3167 29.0014 16.7754C28.7387 16.2342 28.3686 15.8004 27.891 15.4741C27.4135 15.1477 26.8404 14.9129 26.1718 14.7697C25.5032 14.6264 24.763 14.5547 23.9511 14.5547H15.9279ZM19.6768 28.6908V24.0106H23.7601C24.5719 24.0106 25.2246 24.1977 25.7181 24.5718C26.2116 24.9459 26.4583 25.5707 26.4583 26.4462C26.4583 26.892 26.3827 27.2581 26.2315 27.5446C26.0803 27.8312 25.8773 28.058 25.6226 28.2252C25.3679 28.3923 25.0734 28.5117 24.7391 28.5834C24.4048 28.655 24.0546 28.6908 23.6884 28.6908H19.6768Z" fill="white"/>
</svg>
