<svg width="44" height="44" viewBox="0 0 44 44" fill="none" xmlns="http://www.w3.org/2000/svg">
<circle cx="22" cy="22" r="22" fill="#e2e8f0"/>
<g clip-path="url(#clip0_0_1)">
<path d="M17.001 39C19.7605 39 22 36.76 22 34V29H17.001C14.2416 29 12.002 31.24 12.002 34C12.002 36.76 14.2416 39 17.001 39Z" fill="#0ACF83"/>
<path d="M12.002 24C12.002 21.24 14.2416 19 17.001 19H22V29H17.001C14.2416 29 12.002 26.76 12.002 24Z" fill="#A259FF"/>
<path d="M12.0099 14C12.0099 11.24 14.2494 8.99998 17.0089 8.99998H22.0079V19H17.0089C14.2494 19 12.0099 16.76 12.0099 14Z" fill="#F24E1E"/>
<path d="M22 8.99998H26.999C29.7584 8.99998 31.998 11.24 31.998 14C31.998 16.76 29.7584 19 26.999 19H22V8.99998Z" fill="#FF7262"/>
<path d="M31.998 24C31.998 26.76 29.7584 29 26.999 29C24.2396 29 22 26.76 22 24C22 21.24 24.2396 19 26.999 19C29.7584 19 31.998 21.24 31.998 24Z" fill="#1ABCFE"/>
</g>
<defs>
<clipPath id="clip0_0_1">
<path d="M12 19C12 13.4772 16.4772 9 22 9C27.5228 9 32 13.4772 32 19V29C32 34.5228 27.5228 39 22 39C16.4772 39 12 34.5228 12 29V19Z" fill="white"/>
</clipPath>
</defs>
</svg>
