<svg width="44" height="46" viewBox="0 0 44 46" fill="none" xmlns="http://www.w3.org/2000/svg">
<ellipse cx="22" cy="22.6846" rx="22" ry="22.5379" fill="#e2e8f0"/>
<path d="M22.6542 30.4878C26.6273 30.4878 29.8481 27.1154 29.8481 22.9553C29.8481 18.7952 26.6273 15.4228 22.6542 15.4228C18.6811 15.4228 15.4603 18.7952 15.4603 22.9553C15.4603 27.1154 18.6811 30.4878 22.6542 30.4878Z" fill="#4E8EF7"/>
<path d="M37.3339 10.174C37.3342 9.67744 37.1981 9.19125 36.9418 8.77345C36.6855 8.35564 36.3198 8.02387 35.8883 7.81772C35.4568 7.61156 34.9778 7.53972 34.5085 7.61077C34.0391 7.68182 33.5991 7.89276 33.2411 8.21842C29.6748 5.40806 25.2234 4.11814 20.7846 4.60879C16.3458 5.09944 12.2497 7.33414 9.32244 10.8623C6.39516 14.3904 4.85439 18.9495 5.01085 23.6202C5.1673 28.2909 7.00933 32.7258 10.1655 36.0305C13.3216 39.3353 17.5571 41.264 22.0179 41.4278C26.4786 41.5916 30.8328 39.9783 34.2023 36.9133C37.5718 33.8482 39.7061 29.5594 40.1747 24.9116C40.6432 20.2638 39.4113 15.6029 36.7273 11.8687C37.1186 11.3992 37.3341 10.7971 37.3339 10.174ZM22.6529 40.7837C19.9556 40.7846 17.2967 40.1145 14.8952 38.8286C12.4937 37.5427 10.4183 35.6778 8.83995 33.3876C7.26163 31.0973 6.22553 28.4472 5.81701 25.6555C5.4085 22.8638 5.63925 20.0104 6.49026 17.3304C7.34127 14.6503 8.78818 12.2204 10.7118 10.2406C12.6355 8.26078 14.9808 6.78785 17.5546 5.94308C20.1284 5.09832 22.8571 4.9059 25.5159 5.38168C28.1746 5.85745 30.6874 6.98781 32.8472 8.67965C32.5098 9.17815 32.3517 9.78557 32.4009 10.3944C32.4502 11.0032 32.7035 11.5742 33.1161 12.0062C33.5287 12.4382 34.074 12.7035 34.6554 12.755C35.2369 12.8065 35.817 12.641 36.2931 12.2878C38.1861 14.9372 39.3373 18.0861 39.6178 21.3818C39.8982 24.6776 39.2967 27.99 37.8808 30.9481C36.4649 33.9061 34.2903 36.393 31.6008 38.1302C28.9113 39.8673 25.813 40.7861 22.6529 40.7837Z" fill="#4E8EF7"/>
</svg>
