<svg width="44" height="46" viewBox="0 0 44 46" fill="none" xmlns="http://www.w3.org/2000/svg">
<ellipse cx="22" cy="22.7115" rx="22" ry="22.5379" fill="#e2e8f0"/>
<path d="M31.65 9H11.35C8.94756 9 7 10.9476 7 13.35V33.65C7 36.0524 8.94756 38 11.35 38H31.65C34.0524 38 36 36.0524 36 33.65V13.35C36 10.9476 34.0524 9 31.65 9Z" fill="#F7DF1E"/>
<path d="M25.3516 29.957C25.918 30.9199 26.7109 31.5996 28.0137 31.5996C29.1465 31.5996 29.8828 31.0332 29.8828 30.2402C29.8828 29.334 29.1465 28.9941 27.9004 28.4277L27.2207 28.1445C25.2383 27.2949 23.9355 26.2754 23.9355 24.0664C23.9355 22.0273 25.4648 20.4414 27.9004 20.4414C29.6562 20.4414 30.9023 21.0645 31.752 22.6504L29.6562 24.0098C29.2031 23.1602 28.6934 22.8203 27.9004 22.8203C27.1074 22.8203 26.5977 23.3301 26.5977 24.0098C26.5977 24.8027 27.1074 25.1426 28.2969 25.6523L28.9766 25.9355C31.2988 26.9551 32.6016 27.918 32.6016 30.2402C32.6016 32.6758 30.6758 34.0352 28.0703 34.0352C25.5215 34.0352 23.8789 32.8457 23.0859 31.2598L25.3516 29.957ZM15.7227 30.1836C16.1758 30.9199 16.5156 31.5996 17.4785 31.5996C18.3848 31.5996 18.9512 31.2598 18.9512 29.9004V20.498H21.6699V29.7871C21.6699 32.6191 20.0273 33.8652 17.5918 33.8652C15.3828 33.8652 14.1367 32.7324 13.5137 31.373L15.7227 30.1836Z" fill="black"/>
</svg>
