<svg width="44" height="46" viewBox="0 0 44 46" fill="none" xmlns="http://www.w3.org/2000/svg">
<ellipse cx="22" cy="22.8851" rx="22" ry="22.5379" fill="#e2e8f0"/>
<path d="M23.3119 39.2763C22.8985 39.2763 22.5126 39.1634 22.1543 38.9657L18.4887 36.7352C17.9375 36.4246 18.2131 36.3117 18.3785 36.2552C19.1226 36.0011 19.2605 35.9446 20.0322 35.4928C20.1148 35.4364 20.2251 35.4646 20.3078 35.5211L23.119 37.2434C23.2292 37.2999 23.367 37.2999 23.4497 37.2434L34.4465 30.7212C34.5567 30.6647 34.6119 30.5518 34.6119 30.4106V17.3944C34.6119 17.2532 34.5567 17.1403 34.4465 17.0838L23.4497 10.5898C23.3395 10.5334 23.2017 10.5334 23.119 10.5898L12.1222 17.0838C12.0119 17.1403 11.9568 17.2815 11.9568 17.3944V30.4106C11.9568 30.5235 12.0119 30.6647 12.1222 30.7212L15.1263 32.5C16.7524 33.347 17.7722 32.3588 17.7722 31.3706V18.5238C17.7722 18.3544 17.91 18.185 18.1029 18.185H19.5085C19.6739 18.185 19.8392 18.3261 19.8392 18.5238V31.3706C19.8392 33.6011 18.6541 34.8999 16.587 34.8999C15.9531 34.8999 15.4571 34.8999 14.0514 34.194L11.1576 32.5C10.441 32.0764 10 31.2859 10 30.4388V17.4226C10 16.5756 10.441 15.785 11.1576 15.3615L22.1543 8.83927C22.8434 8.44398 23.7804 8.44398 24.4695 8.83927L35.4662 15.3615C36.1828 15.785 36.6238 16.5756 36.6238 17.4226V30.4388C36.6238 31.2859 36.1828 32.0764 35.4662 32.5L24.4695 39.0222C24.1112 39.1916 23.6977 39.2763 23.3119 39.2763ZM26.7019 30.3259C21.8787 30.3259 20.8865 28.0671 20.8865 26.1472C20.8865 25.9777 21.0243 25.8083 21.2173 25.8083H22.6504C22.8158 25.8083 22.9536 25.9213 22.9536 26.0907C23.1741 27.5871 23.808 28.3212 26.7294 28.3212C29.0446 28.3212 30.0367 27.7848 30.0367 26.5142C30.0367 25.7801 29.7611 25.2436 26.1507 24.8766C23.1465 24.566 21.2724 23.8884 21.2724 21.432C21.2724 19.1449 23.1465 17.7897 26.2885 17.7897C29.8163 17.7897 31.5526 19.032 31.7731 21.7425C31.7731 21.8272 31.7455 21.9119 31.6904 21.9967C31.6353 22.0531 31.5526 22.1096 31.4699 22.1096H30.0367C29.8989 22.1096 29.7611 21.9967 29.7336 21.8555C29.4028 20.3026 28.5485 19.7943 26.2885 19.7943C23.7529 19.7943 23.4497 20.6979 23.4497 21.3755C23.4497 22.1943 23.808 22.4484 27.2255 22.9002C30.6155 23.3519 32.2141 24.0013 32.2141 26.4295C32.1865 28.9142 30.2021 30.3259 26.7019 30.3259Z" fill="#539E43"/>
</svg>
