<svg width="44" height="45" viewBox="0 0 44 45" fill="none" xmlns="http://www.w3.org/2000/svg">
<circle cx="22" cy="22.9413" r="22" fill="#e2e8f0"/>
<path d="M21.7326 12.9413C10.835 12.9413 2 17.4186 2 22.9413C2 28.4641 10.835 32.9413 21.7326 32.9413C32.6302 32.9413 41.4651 28.4641 41.4651 22.9413C41.4651 17.4186 32.6302 12.9413 21.7326 12.9413ZM16.598 24.8896C16.1271 25.3301 15.6042 25.512 15.0283 25.6993C14.4524 25.887 13.7196 25.8482 12.8285 25.8482H10.8088L10.2491 29.0781H7.89096L9.99522 18.0965H14.53C15.8943 18.0965 16.8894 18.4889 17.515 19.205C18.1406 19.9211 18.3286 20.9375 18.0793 22.2207C17.9762 22.7495 17.8028 23.241 17.558 23.679C17.3128 24.1173 16.9927 24.5265 16.598 24.8896ZM23.4812 25.8482L24.4117 21.1907C24.5177 20.6455 24.4789 20.2405 24.2951 20.0425C24.111 19.8442 23.7196 19.7114 23.1211 19.7114H21.251L20.0459 25.8482H17.7062L19.8105 15.1896H22.1502L21.5908 18.0965H23.675C24.9867 18.0965 25.891 18.3597 26.3888 18.8171C26.8865 19.2744 27.0357 19.901 26.8367 20.9256L25.8578 25.8482H23.4812ZM36.4844 22.2379C36.3816 22.7666 36.2079 23.2498 35.9634 23.6874C35.7186 24.1257 35.3988 24.5265 35.0038 24.8896C34.5329 25.3301 34.0096 25.512 33.4341 25.6993C32.8585 25.887 32.125 25.8482 31.2339 25.8482H29.2142L28.6548 29.0781H26.2967L28.4006 18.0965H32.9357C34.3 18.0965 35.2951 18.4889 35.9204 19.205C36.5454 19.9211 36.7337 20.9549 36.4844 22.2379ZM32.042 19.7114H30.4267L29.5459 24.2333H30.9807C31.9309 24.2333 32.6395 24.1396 33.1046 23.7811C33.5704 23.4232 33.884 22.8677 34.0471 22.0302C34.2034 21.2256 34.1324 20.598 33.8339 20.2673C33.5352 19.9366 32.938 19.7114 32.042 19.7114ZM13.6366 19.7114H12.021L11.1402 24.2333H12.5746C13.5251 24.2333 14.2335 24.1396 14.6989 23.7811C15.1643 23.4232 15.4782 22.8677 15.641 22.0302C15.7974 21.2256 15.7263 20.598 15.4279 20.2673C15.1294 19.9366 14.5325 19.7114 13.6366 19.7114Z" fill="#6181B6"/>
</svg>
