<svg width="44" height="46" viewBox="0 0 44 46" fill="none" xmlns="http://www.w3.org/2000/svg">
<ellipse cx="22" cy="22.6846" rx="22" ry="22.5379" fill="#e2e8f0"/>
<path d="M17.7876 9.52147V23.8385H11.3813V9.52147" fill="#FFBC0E"/>
<path d="M17.7936 23.9932H11.3813C11.3413 23.9932 11.3028 23.9769 11.2745 23.9479C11.2462 23.9188 11.2303 23.8795 11.2303 23.8385V9.52147C11.2303 9.48044 11.2462 9.44109 11.2745 9.41207C11.3028 9.38306 11.3413 9.36676 11.3813 9.36676C11.4214 9.36676 11.4598 9.38306 11.4881 9.41207C11.5164 9.44109 11.5323 9.48044 11.5323 9.52147V23.6838H17.6426V9.52147C17.6426 9.48044 17.6585 9.44109 17.6868 9.41207C17.7151 9.38306 17.7535 9.36676 17.7936 9.36676C17.8336 9.36676 17.872 9.38306 17.9004 9.41207C17.9287 9.44109 17.9446 9.48044 17.9446 9.52147V23.8385C17.9446 23.8795 17.9287 23.9188 17.9004 23.9479C17.872 23.9769 17.8336 23.9932 17.7936 23.9932Z" fill="#093F68"/>
<path d="M12.8341 22.5265C13.0493 22.5265 13.2238 22.3478 13.2238 22.1274C13.2238 21.9069 13.0493 21.7282 12.8341 21.7282C12.619 21.7282 12.4445 21.9069 12.4445 22.1274C12.4445 22.3478 12.619 22.5265 12.8341 22.5265Z" fill="#093F68"/>
<path d="M21.6687 18.2781C21.6687 18.2781 20.0423 18.4035 19.3159 18.5272C18.5895 18.651 17.5036 20.2646 15.9648 20.4302C14.4259 20.5957 13.1785 20.6359 12.7345 20.2229C12.2905 19.8098 12.4521 18.9852 12.4521 18.9852H10.6217C9.54494 18.9852 9.46339 17.7753 10.1687 17.4164C10.1687 17.4164 8.9605 17.2462 8.8563 16.3767C8.73397 15.3912 9.89833 15.3293 9.89833 15.3293C9.70318 15.0593 9.60792 14.7271 9.62951 14.3918C9.68388 13.8673 10.6262 13.5099 10.6262 13.5099C10.6262 13.5099 10.0871 13.151 10.4646 12.461C10.8422 11.771 11.0838 11.8824 12.4566 11.8824C13.8294 11.8824 15.2021 11.7725 15.93 12.0479C16.6579 12.3233 18.8915 13.3166 19.5107 13.3444C20.1299 13.3722 21.6748 13.2887 21.6748 13.2887L21.6687 18.2781Z" fill="#FFC9B0"/>
<path d="M14.1933 20.704C13.4578 20.704 12.9202 20.605 12.6333 20.3373C12.2648 19.9939 12.2557 19.4292 12.2799 19.1383H10.6187C9.97987 19.1383 9.66424 18.7546 9.58269 18.3973C9.54694 18.2384 9.54943 18.073 9.58994 17.9153C9.63046 17.7577 9.70778 17.6124 9.81526 17.4922C9.41657 17.37 8.78229 17.0714 8.69772 16.3953C8.67434 16.2594 8.67991 16.1199 8.71405 15.9864C8.7482 15.8528 8.81012 15.7285 8.89556 15.6217C9.09316 15.4057 9.35391 15.2613 9.63857 15.2102C9.50373 14.9546 9.44493 14.6642 9.46943 14.3748C9.51474 13.9277 10.0373 13.6012 10.3469 13.4573C10.1762 13.2345 10.0614 12.8601 10.3212 12.3852C10.6927 11.7075 11.0098 11.7106 11.9537 11.723H12.446C12.7571 11.723 13.0682 11.723 13.3733 11.7122C14.4062 11.6936 15.3833 11.6751 15.9708 11.8978C16.149 11.9659 16.4163 12.0758 16.7259 12.2073C17.6547 12.5894 19.0606 13.168 19.5031 13.1881C20.1072 13.2144 21.637 13.134 21.6521 13.1324C21.6729 13.1313 21.6937 13.1345 21.7132 13.142C21.7327 13.1494 21.7504 13.1609 21.7654 13.1758C21.7801 13.1901 21.7919 13.2074 21.7999 13.2266C21.8079 13.2457 21.8121 13.2663 21.8122 13.2871V18.2781C21.8123 18.3174 21.7979 18.3552 21.7718 18.3839C21.7457 18.4126 21.71 18.4301 21.6718 18.4328C21.6552 18.4328 20.0453 18.5582 19.334 18.6804C19.0833 18.7222 18.7495 18.9975 18.3614 19.3147C17.7302 19.833 16.9434 20.4797 15.9723 20.5833C15.3816 20.6539 14.7879 20.6942 14.1933 20.704ZM11.626 12.0293C10.9796 12.0293 10.8377 12.0866 10.593 12.5353C10.291 13.0767 10.664 13.349 10.7063 13.3784C10.7308 13.3948 10.7501 13.4182 10.7619 13.4457C10.7737 13.4731 10.7775 13.5035 10.7727 13.5331C10.7695 13.5613 10.7588 13.5881 10.7418 13.6105C10.7247 13.6328 10.702 13.65 10.6761 13.66C10.4541 13.7451 9.81224 14.0653 9.76996 14.415C9.75188 14.7099 9.83583 15.0019 10.0071 15.2396C10.0243 15.2618 10.0352 15.2885 10.0386 15.3167C10.042 15.3448 10.0378 15.3734 10.0264 15.3993C10.015 15.4252 9.99693 15.4474 9.97407 15.4634C9.95121 15.4794 9.92448 15.4887 9.89681 15.4902C9.89681 15.4902 9.37429 15.5243 9.1236 15.8322C9.06626 15.9063 9.02513 15.9922 9.00298 16.084C8.98084 16.1758 8.97819 16.2714 8.99523 16.3644C9.08735 17.107 10.1671 17.2679 10.1777 17.2694C10.2097 17.274 10.2394 17.2889 10.2625 17.312C10.2856 17.3351 10.3009 17.3652 10.3061 17.3978C10.3094 17.429 10.3034 17.4606 10.2888 17.4882C10.2743 17.5158 10.2518 17.5383 10.2245 17.5525C10.0904 17.6232 9.98303 17.7376 9.91932 17.8776C9.85562 18.0177 9.8392 18.1754 9.87265 18.3261C9.94514 18.6355 10.223 18.8289 10.6157 18.8289H12.446C12.4685 18.8285 12.4908 18.8332 12.5113 18.8428C12.5318 18.8523 12.5499 18.8664 12.5644 18.8841C12.5789 18.9017 12.5893 18.9224 12.595 18.9448C12.6006 18.9671 12.6013 18.9904 12.597 19.013C12.597 19.013 12.4581 19.7603 12.8326 20.1084C13.2615 20.5075 14.7219 20.4085 15.9451 20.2755C16.8271 20.1811 17.5761 19.5669 18.1772 19.0734C18.5985 18.7283 18.961 18.4298 19.2887 18.3741C19.8928 18.2704 21.1009 18.1683 21.5147 18.1358V13.4496C21.1024 13.4697 20.0045 13.5192 19.4956 13.4976C18.9866 13.4759 17.6229 12.9081 16.6172 12.4935C16.3151 12.3666 16.0433 12.2583 15.8621 12.1841C15.3275 11.9814 14.3791 11.9984 13.3748 12.017C13.0727 12.017 12.7556 12.0278 12.443 12.0278H11.9461L11.626 12.0293Z" fill="#093F68"/>
<path d="M14.6056 19.1383H12.452C12.412 19.1383 12.3736 19.122 12.3453 19.093C12.3169 19.064 12.301 19.0246 12.301 18.9836C12.301 18.9426 12.3169 18.9032 12.3453 18.8742C12.3736 18.8452 12.412 18.8289 12.452 18.8289H14.6056C14.6456 18.8289 14.684 18.8452 14.7124 18.8742C14.7407 18.9032 14.7566 18.9426 14.7566 18.9836C14.7566 19.0246 14.7407 19.064 14.7124 19.093C14.684 19.122 14.6456 19.1383 14.6056 19.1383Z" fill="#093F68"/>
<path d="M13.3401 17.5696H10.1687C10.1286 17.5696 10.0902 17.5533 10.0619 17.5242C10.0335 17.4952 10.0176 17.4559 10.0176 17.4148C10.0176 17.3738 10.0335 17.3345 10.0619 17.3054C10.0902 17.2764 10.1286 17.2601 10.1687 17.2601H13.3401C13.3801 17.2601 13.4185 17.2764 13.4468 17.3054C13.4752 17.3345 13.4911 17.3738 13.4911 17.4148C13.4911 17.4559 13.4752 17.4952 13.4468 17.5242C13.4185 17.5533 13.3801 17.5696 13.3401 17.5696Z" fill="#093F68"/>
<path d="M13.414 15.4825H9.89376C9.8537 15.4825 9.81529 15.4662 9.78697 15.4372C9.75865 15.4082 9.74274 15.3688 9.74274 15.3278C9.74274 15.2868 9.75865 15.2474 9.78697 15.2184C9.81529 15.1894 9.8537 15.1731 9.89376 15.1731H13.414C13.4541 15.1731 13.4925 15.1894 13.5208 15.2184C13.5491 15.2474 13.565 15.2868 13.565 15.3278C13.565 15.3688 13.5491 15.4082 13.5208 15.4372C13.4925 15.4662 13.4541 15.4825 13.414 15.4825Z" fill="#093F68"/>
<path d="M13.1784 13.6631H10.6217C10.5816 13.6631 10.5432 13.6468 10.5149 13.6178C10.4866 13.5888 10.4706 13.5494 10.4706 13.5084C10.4706 13.4673 10.4866 13.428 10.5149 13.399C10.5432 13.37 10.5816 13.3537 10.6217 13.3537H13.1784C13.2185 13.3537 13.2569 13.37 13.2852 13.399C13.3135 13.428 13.3294 13.4673 13.3294 13.5084C13.3294 13.5494 13.3135 13.5888 13.2852 13.6178C13.2569 13.6468 13.2185 13.6631 13.1784 13.6631Z" fill="#093F68"/>
<path d="M21.6174 12.8075V18.5984H20.2341V12.8075H21.6174Z" fill="white"/>
<path d="M21.6174 18.7516H20.234C20.194 18.7516 20.1556 18.7353 20.1272 18.7062C20.0989 18.6772 20.083 18.6379 20.083 18.5968V12.806C20.083 12.765 20.0989 12.7256 20.1272 12.6966C20.1556 12.6676 20.194 12.6513 20.234 12.6513H21.6174C21.6574 12.6513 21.6958 12.6676 21.7241 12.6966C21.7525 12.7256 21.7684 12.765 21.7684 12.806V18.5968C21.7684 18.6379 21.7525 18.6772 21.7241 18.7062C21.6958 18.7353 21.6574 18.7516 21.6174 18.7516ZM20.385 18.4421H21.4663V12.9607H20.385V18.4421Z" fill="#093F68"/>
<path d="M35.5912 18.9836H21.6174V12.4208H35.5912" fill="#68E1FD"/>
<path d="M35.5911 19.1383H21.6173C21.5773 19.1383 21.5389 19.122 21.5105 19.093C21.4822 19.064 21.4663 19.0247 21.4663 18.9836V12.4208C21.4663 12.3797 21.4822 12.3404 21.5105 12.3114C21.5389 12.2824 21.5773 12.2661 21.6173 12.2661H35.5911C35.6312 12.2661 35.6696 12.2824 35.6979 12.3114C35.7262 12.3404 35.7421 12.3797 35.7421 12.4208C35.7421 12.4618 35.7262 12.5011 35.6979 12.5302C35.6696 12.5592 35.6312 12.5755 35.5911 12.5755H21.7683V18.8289H35.5911C35.6312 18.8289 35.6696 18.8452 35.6979 18.8742C35.7262 18.9032 35.7421 18.9426 35.7421 18.9836C35.7421 19.0247 35.7262 19.064 35.6979 19.093C35.6696 19.122 35.6312 19.1383 35.5911 19.1383Z" fill="#093F68"/>
<path d="M23.2861 14.3067C23.5013 14.3067 23.6757 14.128 23.6757 13.9075C23.6757 13.6871 23.5013 13.5084 23.2861 13.5084C23.0709 13.5084 22.8965 13.6871 22.8965 13.9075C22.8965 14.128 23.0709 14.3067 23.2861 14.3067Z" fill="#093F68"/>
<path d="M32.0543 22.9814C32.0543 22.9814 32.1766 21.3167 32.2974 20.571C32.4182 19.8253 33.9934 18.7144 34.155 17.1379C34.3165 15.5614 34.3558 14.2835 33.9526 13.8286C33.5494 13.3738 32.7444 13.5393 32.7444 13.5393V11.6642C32.7444 10.5611 31.5635 10.4791 31.2131 11.2001C31.2131 11.2001 31.047 9.9624 30.1983 9.85565C29.2363 9.73033 29.1759 10.9247 29.1759 10.9247C28.9126 10.724 28.588 10.6264 28.2607 10.6493C27.7487 10.7035 27.3999 11.6689 27.3999 11.6689C27.3999 11.6689 27.0495 11.1181 26.376 11.5033C25.7024 11.8886 25.8112 12.1376 25.8112 13.544C25.8112 14.9503 25.7039 16.3566 25.9727 17.1023C26.2416 17.848 27.2111 20.1347 27.2383 20.769C27.2655 21.4033 27.1839 22.986 27.1839 22.986L32.0543 22.9814Z" fill="#AD7972"/>
<path d="M32.0543 23.1361H27.1824C27.1621 23.136 27.1419 23.1317 27.1233 23.1235C27.1046 23.1152 27.0877 23.1032 27.0737 23.0881C27.0594 23.073 27.0483 23.055 27.041 23.0353C27.0337 23.0156 27.0305 22.9947 27.0314 22.9736C27.0314 22.9582 27.1114 21.3909 27.0858 20.7721C27.0661 20.3172 26.5013 18.8769 26.1268 17.9238C26.0029 17.6144 25.8957 17.3328 25.8247 17.1503C25.6073 16.5485 25.6239 15.5475 25.6435 14.4893C25.6435 14.1798 25.6541 13.858 25.6541 13.5393C25.6541 13.3521 25.6541 13.185 25.6541 13.035C25.642 12.068 25.639 11.7431 26.2989 11.3641C26.7641 11.0964 27.1295 11.2094 27.347 11.3888C27.498 11.0794 27.8001 10.5364 28.2426 10.49C28.5251 10.4649 28.8086 10.5251 29.0581 10.6632C29.1085 10.3703 29.2506 10.102 29.4628 9.89897C29.5673 9.81206 29.6888 9.74914 29.819 9.71444C29.9493 9.67974 30.0853 9.67408 30.2179 9.69784C30.8763 9.78293 31.1693 10.4327 31.2886 10.8412C31.406 10.7311 31.5477 10.6518 31.7016 10.6103C31.8555 10.5688 32.017 10.5663 32.1721 10.6029C32.5209 10.688 32.8955 11.0113 32.8955 11.6642V13.366C33.1794 13.3428 33.7306 13.3506 34.0659 13.7281C34.5068 14.2247 34.4812 15.4577 34.306 17.158C34.2048 18.1513 33.5735 18.9573 33.0676 19.6056C32.7565 20.0016 32.4892 20.3451 32.4469 20.6004C32.3291 21.329 32.2083 22.9798 32.2068 22.9953C32.2034 23.0341 32.1858 23.0702 32.1575 23.0963C32.1292 23.1224 32.0923 23.1366 32.0543 23.1361ZM27.341 22.8266H31.9153C31.9471 22.4043 32.0467 21.1697 32.1479 20.5462C32.2023 20.2105 32.4937 19.8392 32.8305 19.4075C33.3123 18.7887 33.9118 18.026 34.0039 17.1224C34.1338 15.8677 34.2305 14.3732 33.8408 13.9338C33.4995 13.5486 32.7837 13.6894 32.7716 13.6909C32.7495 13.6953 32.7268 13.6946 32.705 13.6888C32.6832 13.683 32.663 13.6723 32.6457 13.6575C32.6285 13.6427 32.6147 13.6241 32.6054 13.6031C32.5961 13.5821 32.5915 13.5593 32.5919 13.5362V11.6642C32.5919 11.262 32.4077 10.9789 32.1011 10.9046C31.954 10.87 31.7999 10.8867 31.6631 10.952C31.5264 11.0173 31.4148 11.1275 31.346 11.2651C31.3316 11.2944 31.3085 11.3184 31.28 11.3334C31.2515 11.3484 31.2191 11.3537 31.1874 11.3486C31.1556 11.3433 31.1262 11.3277 31.1036 11.304C31.0811 11.2803 31.0665 11.2499 31.0621 11.2171C31.0621 11.2063 30.9005 10.0985 30.1771 10.0042C30.0866 9.98684 29.9935 9.98962 29.9042 10.0123C29.8148 10.035 29.7312 10.0771 29.6591 10.1357C29.3571 10.3925 29.3254 10.9232 29.3254 10.9278C29.3239 10.9562 29.3148 10.9837 29.2991 11.0072C29.2834 11.0306 29.2616 11.0492 29.2363 11.0608C29.2116 11.0715 29.1846 11.0753 29.1581 11.0717C29.1316 11.0682 29.1064 11.0575 29.0852 11.0407C28.8527 10.8663 28.568 10.7804 28.2803 10.7978C27.939 10.835 27.6264 11.4909 27.5433 11.7184C27.5335 11.7451 27.5167 11.7685 27.4948 11.786C27.4728 11.8035 27.4466 11.8145 27.4189 11.8177C27.3913 11.8209 27.3633 11.8162 27.3381 11.8041C27.3129 11.7921 27.2914 11.7731 27.276 11.7493C27.2473 11.706 26.974 11.3316 26.453 11.6333C25.9486 11.9226 25.9501 12.0711 25.9622 13.0257V13.5331C25.9622 13.8549 25.9622 14.1752 25.9516 14.4893C25.9335 15.5181 25.9169 16.4897 26.1147 17.0373C26.1781 17.2153 26.2854 17.4876 26.4092 17.8016C26.8139 18.8335 27.3666 20.2445 27.3893 20.752C27.412 21.2594 27.3606 22.4043 27.341 22.8266Z" fill="#093F68"/>
<path d="M32.7445 15.9002C32.7045 15.9002 32.6661 15.8839 32.6377 15.8549C32.6094 15.8259 32.5935 15.7865 32.5935 15.7455V13.5393C32.5935 13.4983 32.6094 13.4589 32.6377 13.4299C32.6661 13.4009 32.7045 13.3846 32.7445 13.3846C32.7846 13.3846 32.823 13.4009 32.8513 13.4299C32.8796 13.4589 32.8955 13.4983 32.8955 13.5393V15.7455C32.8955 15.7865 32.8796 15.8259 32.8513 15.8549C32.823 15.8839 32.7846 15.9002 32.7445 15.9002Z" fill="#093F68"/>
<path d="M31.2116 14.6037C31.1715 14.6037 31.1331 14.5874 31.1048 14.5584C31.0765 14.5294 31.0605 14.49 31.0605 14.449V11.2001C31.0605 11.159 31.0765 11.1197 31.1048 11.0907C31.1331 11.0617 31.1715 11.0454 31.2116 11.0454C31.2516 11.0454 31.29 11.0617 31.3184 11.0907C31.3467 11.1197 31.3626 11.159 31.3626 11.2001V14.449C31.3626 14.49 31.3467 14.5294 31.3184 14.5584C31.29 14.5874 31.2516 14.6037 31.2116 14.6037Z" fill="#093F68"/>
<path d="M29.1743 14.6873C29.1343 14.6873 29.0959 14.671 29.0675 14.642C29.0392 14.6129 29.0233 14.5736 29.0233 14.5326V10.92C29.0233 10.879 29.0392 10.8397 29.0675 10.8106C29.0959 10.7816 29.1343 10.7653 29.1743 10.7653C29.2144 10.7653 29.2528 10.7816 29.2811 10.8106C29.3094 10.8397 29.3254 10.879 29.3254 10.92V14.5326C29.3254 14.5736 29.3094 14.6129 29.2811 14.642C29.2528 14.671 29.2144 14.6873 29.1743 14.6873Z" fill="#093F68"/>
<path d="M27.3983 14.4382C27.3583 14.4382 27.3199 14.4219 27.2915 14.3929C27.2632 14.3639 27.2473 14.3245 27.2473 14.2835V11.6642C27.2473 11.6232 27.2632 11.5838 27.2915 11.5548C27.3199 11.5258 27.3583 11.5095 27.3983 11.5095C27.4384 11.5095 27.4768 11.5258 27.5051 11.5548C27.5334 11.5838 27.5494 11.6232 27.5494 11.6642V14.2835C27.5494 14.3245 27.5334 14.3639 27.5051 14.3929C27.4768 14.4219 27.4384 14.4382 27.3983 14.4382Z" fill="#093F68"/>
<path d="M26.7126 21.5131H32.3653V22.9303H26.7126V21.5131Z" fill="#093F68"/>
<path d="M32.3654 23.0835H26.7128C26.6727 23.0835 26.6343 23.0672 26.606 23.0381C26.5777 23.0091 26.5618 22.9698 26.5618 22.9287V21.5131C26.5618 21.4721 26.5777 21.4328 26.606 21.4037C26.6343 21.3747 26.6727 21.3584 26.7128 21.3584H32.3654C32.4055 21.3584 32.4439 21.3747 32.4722 21.4037C32.5005 21.4328 32.5164 21.4721 32.5164 21.5131V22.9287C32.5164 22.9698 32.5005 23.0091 32.4722 23.0381C32.4439 23.0672 32.4055 23.0835 32.3654 23.0835ZM26.8638 22.774H32.2144V21.6679H26.8638V22.774Z" fill="#093F68"/>
<path d="M32.7429 37.2457V22.9288H26.3367V37.2457" fill="#F56132"/>
<path d="M32.7445 37.4005C32.7045 37.4005 32.6661 37.3842 32.6378 37.3551C32.6094 37.3261 32.5935 37.2868 32.5935 37.2458V23.0835H26.4878V37.2458C26.4878 37.2868 26.4719 37.3261 26.4436 37.3551C26.4153 37.3842 26.3769 37.4005 26.3368 37.4005C26.2968 37.4005 26.2583 37.3842 26.23 37.3551C26.2017 37.3261 26.1858 37.2868 26.1858 37.2458V22.9288C26.1858 22.8877 26.2017 22.8484 26.23 22.8194C26.2583 22.7903 26.2968 22.774 26.3368 22.774H32.7445C32.7846 22.774 32.823 22.7903 32.8513 22.8194C32.8797 22.8484 32.8956 22.8877 32.8956 22.9288V37.2458C32.8956 37.2868 32.8797 37.3261 32.8513 37.3551C32.823 37.3842 32.7846 37.4005 32.7445 37.4005Z" fill="#093F68"/>
<path d="M27.7881 25.039C28.0033 25.039 28.1777 24.8603 28.1777 24.6399C28.1777 24.4194 28.0033 24.2407 27.7881 24.2407C27.5729 24.2407 27.3984 24.4194 27.3984 24.6399C27.3984 24.8603 27.5729 25.039 27.7881 25.039Z" fill="#093F68"/>
<path d="M22.0734 33.6178C22.0734 33.6178 23.6999 33.7415 24.4263 33.8669C25.1527 33.9922 26.2385 35.6043 27.7774 35.7698C29.3163 35.9354 30.5637 35.9756 31.0077 35.5625C31.4517 35.1494 31.2901 34.3248 31.2901 34.3248H33.1205C34.1972 34.3248 34.2788 33.1134 33.5735 32.756C33.5735 32.756 34.7817 32.5859 34.8859 31.7164C35.0082 30.7309 33.8438 30.669 33.8438 30.669C34.039 30.3989 34.1342 30.0667 34.1127 29.7314C34.0583 29.207 33.1159 28.848 33.1159 28.848C33.1159 28.848 33.6551 28.4906 33.2775 27.8006C32.9 27.1106 32.6583 27.222 31.2856 27.222C29.9128 27.222 28.5401 27.1122 27.8121 27.3876C27.0842 27.6629 24.8507 28.6562 24.2315 28.684C23.6123 28.7119 22.0674 28.6283 22.0674 28.6283L22.0734 33.6178Z" fill="#FFC9B0"/>
<path d="M29.5488 36.0436C28.9517 36.0341 28.3554 35.9938 27.7623 35.923C26.7912 35.8178 26.0044 35.1726 25.3732 34.6543C24.985 34.3356 24.6513 34.0618 24.4006 34.0185C23.6893 33.8978 22.0794 33.774 22.0628 33.7725C22.0246 33.7697 21.9889 33.7522 21.9628 33.7235C21.9367 33.6948 21.9223 33.657 21.9224 33.6178V28.6268C21.9222 28.6057 21.9263 28.5848 21.9344 28.5654C21.9424 28.5459 21.9543 28.5284 21.9692 28.5138C21.9841 28.4995 22.0017 28.4884 22.0209 28.4812C22.0401 28.474 22.0605 28.4709 22.0809 28.4721C22.0975 28.4721 23.6259 28.5541 24.2314 28.5278C24.6739 28.5077 26.0799 27.929 27.0087 27.5469C27.3198 27.4185 27.5871 27.3086 27.7638 27.2375C28.3528 27.0147 29.3283 27.0317 30.3613 27.0518C30.6633 27.0518 30.9775 27.0626 31.2886 27.0626H31.7809C32.7248 27.0518 33.0419 27.0487 33.4119 27.7248C33.6732 28.2013 33.5629 28.5757 33.3877 28.7985C33.6973 28.9532 34.2198 29.2626 34.2651 29.7144C34.29 30.0039 34.2312 30.2944 34.096 30.5498C34.3821 30.6026 34.6441 30.7479 34.8435 30.9645C34.9287 31.0713 34.9905 31.1957 35.0246 31.3292C35.0588 31.4627 35.0645 31.6021 35.0414 31.738C34.9568 32.4126 34.324 32.7112 33.9238 32.8349C34.0313 32.9552 34.1086 33.1004 34.1492 33.2581C34.1897 33.4157 34.1922 33.5811 34.1564 33.74C34.0749 34.0974 33.7592 34.4811 33.1204 34.4811H31.4592C31.4834 34.7719 31.4743 35.3366 31.1058 35.6801C30.8219 35.9431 30.2843 36.0436 29.5488 36.0436ZM22.2244 33.4754C22.6367 33.5079 23.8418 33.61 24.4504 33.7137C24.7781 33.7694 25.1406 34.068 25.5619 34.413C26.166 34.9065 26.912 35.5207 27.794 35.6151C29.0172 35.7466 30.4776 35.8472 30.9065 35.448C31.281 35.0984 31.1436 34.365 31.1421 34.3526C31.1378 34.33 31.1385 34.3067 31.1442 34.2844C31.1498 34.2621 31.1602 34.2413 31.1747 34.2237C31.1892 34.206 31.2073 34.1919 31.2278 34.1824C31.2483 34.1729 31.2706 34.1681 31.2931 34.1685H33.1234C33.5161 34.1685 33.794 33.9798 33.8665 33.6657C33.8999 33.5151 33.8835 33.3573 33.8198 33.2172C33.7561 33.0772 33.6487 32.9628 33.5146 32.8922C33.4861 32.8772 33.4629 32.8534 33.4485 32.8241C33.434 32.7948 33.4291 32.7616 33.4343 32.7292C33.4395 32.6968 33.4546 32.667 33.4775 32.644C33.5003 32.621 33.5297 32.6061 33.5614 32.6013C33.572 32.6013 34.6518 32.4358 34.7439 31.6947C34.7609 31.602 34.7582 31.5066 34.7361 31.4151C34.7139 31.3235 34.6728 31.2379 34.6155 31.164C34.3648 30.8546 33.8483 30.8221 33.8423 30.8221C33.8145 30.8206 33.7877 30.8111 33.7647 30.7949C33.7418 30.7787 33.7238 30.7563 33.7125 30.7302C33.7013 30.7041 33.6973 30.6753 33.701 30.647C33.7047 30.6187 33.716 30.5921 33.7336 30.57C33.903 30.3313 33.9863 30.0399 33.9691 29.7453C33.9344 29.3972 33.2926 29.077 33.0706 28.9919C33.0445 28.9818 33.0216 28.9644 33.0045 28.9417C32.9875 28.919 32.9769 28.892 32.9739 28.8635C32.9711 28.8352 32.976 28.8066 32.988 28.781C32.9999 28.7553 33.0186 28.7336 33.0419 28.7181C33.0827 28.6887 33.4496 28.4086 33.1536 27.8749C32.8712 27.3581 32.7278 27.3597 31.7945 27.3705C31.6435 27.3705 31.4819 27.3705 31.2976 27.3705C30.985 27.3705 30.6709 27.3705 30.3658 27.3597C29.3616 27.3411 28.4132 27.3226 27.8786 27.5268C27.7034 27.5918 27.4376 27.7016 27.1235 27.8285C26.1177 28.2431 24.7404 28.8093 24.245 28.831C23.7497 28.8527 22.6397 28.8047 22.2259 28.7846L22.2244 33.4754Z" fill="#093F68"/>
<path d="M31.2901 34.478H29.1366C29.0966 34.478 29.0581 34.4617 29.0298 34.4327C29.0015 34.4036 28.9856 34.3643 28.9856 34.3233C28.9856 34.2822 29.0015 34.2429 29.0298 34.2139C29.0581 34.1848 29.0966 34.1685 29.1366 34.1685H31.2901C31.3302 34.1685 31.3686 34.1848 31.3969 34.2139C31.4253 34.2429 31.4412 34.2822 31.4412 34.3233C31.4412 34.3643 31.4253 34.4036 31.3969 34.4327C31.3686 34.4617 31.3302 34.478 31.2901 34.478Z" fill="#093F68"/>
<path d="M33.578 32.9092H30.4066C30.3666 32.9092 30.3282 32.8929 30.2998 32.8639C30.2715 32.8349 30.2556 32.7955 30.2556 32.7545C30.2556 32.7135 30.2715 32.6741 30.2998 32.6451C30.3282 32.6161 30.3666 32.5998 30.4066 32.5998H33.578C33.6181 32.5998 33.6565 32.6161 33.6848 32.6451C33.7131 32.6741 33.729 32.7135 33.729 32.7545C33.729 32.7955 33.7131 32.8349 33.6848 32.8639C33.6565 32.8929 33.6181 32.9092 33.578 32.9092Z" fill="#093F68"/>
<path d="M33.8484 30.8221H30.3281C30.2881 30.8221 30.2497 30.8058 30.2214 30.7768C30.193 30.7478 30.1771 30.7085 30.1771 30.6674C30.1771 30.6264 30.193 30.587 30.2214 30.558C30.2497 30.529 30.2881 30.5127 30.3281 30.5127H33.8544C33.8945 30.5127 33.9329 30.529 33.9612 30.558C33.9895 30.587 34.0055 30.6264 34.0055 30.6674C34.0055 30.7085 33.9895 30.7478 33.9612 30.7768C33.9329 30.8058 33.8945 30.8221 33.8544 30.8221H33.8484Z" fill="#093F68"/>
<path d="M33.1205 29.0012H30.5637C30.5237 29.0012 30.4853 28.9849 30.457 28.9559C30.4286 28.9269 30.4127 28.8875 30.4127 28.8465C30.4127 28.8054 30.4286 28.7661 30.457 28.7371C30.4853 28.7081 30.5237 28.6918 30.5637 28.6918H33.1205C33.1605 28.6918 33.199 28.7081 33.2273 28.7371C33.2556 28.7661 33.2715 28.8054 33.2715 28.8465C33.2715 28.8875 33.2556 28.9269 33.2273 28.9559C33.199 28.9849 33.1605 29.0012 33.1205 29.0012Z" fill="#093F68"/>
<path d="M23.5081 28.1456V33.9365H22.1247V28.1456H23.5081Z" fill="white"/>
<path d="M23.5082 34.0912H22.1249C22.0848 34.0912 22.0464 34.0749 22.0181 34.0459C21.9898 34.0169 21.9739 33.9775 21.9739 33.9365V28.1456C21.9739 28.1046 21.9898 28.0652 22.0181 28.0362C22.0464 28.0072 22.0848 27.9909 22.1249 27.9909H23.5082C23.5483 27.9909 23.5867 28.0072 23.615 28.0362C23.6433 28.0652 23.6592 28.1046 23.6592 28.1456V33.9365C23.6592 33.9775 23.6433 34.0169 23.615 34.0459C23.5867 34.0749 23.5483 34.0912 23.5082 34.0912ZM22.2759 33.7818H23.3572V28.3003H22.2759V33.7818Z" fill="#093F68"/>
<path d="M8.151 34.3233H22.1248V27.7604H8.151" fill="#68E1FD"/>
<path d="M22.1248 34.478H8.15102C8.11097 34.478 8.07255 34.4617 8.04423 34.4326C8.01591 34.4036 8 34.3643 8 34.3233C8 34.2822 8.01591 34.2429 8.04423 34.2139C8.07255 34.1848 8.11097 34.1685 8.15102 34.1685H21.9738V27.9151H8.15102C8.11097 27.9151 8.07255 27.8988 8.04423 27.8698C8.01591 27.8408 8 27.8014 8 27.7604C8 27.7194 8.01591 27.68 8.04423 27.651C8.07255 27.622 8.11097 27.6057 8.15102 27.6057H22.1248C22.1649 27.6057 22.2033 27.622 22.2316 27.651C22.2599 27.68 22.2758 27.7194 22.2758 27.7604V34.3233C22.2758 34.3643 22.2599 34.4036 22.2316 34.4326C22.2033 34.4617 22.1649 34.478 22.1248 34.478Z" fill="#093F68"/>
<path d="M20.456 29.6463C20.6712 29.6463 20.8457 29.4676 20.8457 29.2472C20.8457 29.0267 20.6712 28.848 20.456 28.848C20.2408 28.848 20.0664 29.0267 20.0664 29.2472C20.0664 29.4676 20.2408 29.6463 20.456 29.6463Z" fill="#093F68"/>
<path d="M17.1004 24.2268C17.1004 24.2268 17.2212 25.4505 17.342 26.1963C17.4628 26.942 19.038 28.0528 19.1996 29.6293C19.3611 31.2058 19.4019 32.4837 18.9987 32.9386C18.5955 33.3934 17.7906 33.2279 17.7906 33.2279V35.103C17.7906 36.2061 16.6096 36.2881 16.2592 35.5671C16.2592 35.5671 16.0931 36.8048 15.2459 36.9116C14.2839 37.0369 14.2235 35.8425 14.2235 35.8425C13.9601 36.0428 13.6356 36.1404 13.3083 36.1179C12.7964 36.0637 12.446 35.0983 12.446 35.0983C12.446 35.0983 12.0956 35.6491 11.4236 35.2639C10.7516 34.8787 10.8588 34.6296 10.8588 33.2232C10.8588 31.8169 10.75 30.4106 11.0189 29.6649C11.2877 28.9192 12.2572 26.6325 12.2844 25.9982C12.3116 25.3639 12.2315 24.2221 12.2315 24.2221L17.1004 24.2268Z" fill="#E28362"/>
<path d="M15.1039 37.0802C14.8877 37.0844 14.6772 37.0092 14.5104 36.8683C14.2988 36.6645 14.1564 36.3967 14.1042 36.104C13.8544 36.2414 13.5711 36.3015 13.2887 36.2773C12.8522 36.2308 12.5411 35.6955 12.3946 35.3784C12.1757 35.5517 11.8117 35.6708 11.3466 35.4031C10.6851 35.0241 10.6896 34.6992 10.7002 33.7323C10.7002 33.5775 10.7002 33.4228 10.7002 33.2279C10.7002 32.9092 10.7002 32.5889 10.6881 32.278C10.67 31.2197 10.6519 30.2188 10.8709 29.6169C10.9373 29.4328 11.0445 29.1528 11.1729 28.8434C11.5474 27.8904 12.1122 26.4515 12.1304 25.9967C12.1575 25.3778 12.0775 24.25 12.0775 24.2392C12.076 24.2181 12.0787 24.1969 12.0854 24.177C12.0922 24.157 12.1028 24.1387 12.1168 24.1231C12.131 24.1074 12.1483 24.0949 12.1676 24.0863C12.1868 24.0778 12.2076 24.0735 12.2285 24.0736H17.1004C17.138 24.0734 17.1742 24.0876 17.2022 24.1133C17.2301 24.1391 17.2476 24.1746 17.2514 24.2129C17.2514 24.2252 17.3737 25.4413 17.493 26.1715C17.5338 26.4268 17.8026 26.7702 18.1122 27.1663C18.6196 27.8145 19.2494 28.6206 19.3521 29.6138C19.5258 31.3157 19.5514 32.5534 19.1104 33.0438C18.7767 33.4213 18.2255 33.4306 17.9401 33.4058V35.1076C17.9401 35.7605 17.567 36.0839 17.2167 36.169C17.0616 36.2055 16.9002 36.2028 16.7463 36.1613C16.5924 36.1198 16.4507 36.0407 16.3332 35.9307C16.2139 36.3391 15.9224 36.9889 15.2625 37.074C15.2098 37.0799 15.1568 37.082 15.1039 37.0802ZM14.2189 35.6878C14.2408 35.688 14.2624 35.6927 14.2824 35.7017C14.3075 35.7136 14.3289 35.7323 14.3443 35.7557C14.3598 35.7792 14.3686 35.8065 14.37 35.8348C14.37 35.8348 14.4032 36.3701 14.7052 36.6269C14.7773 36.6857 14.8608 36.7279 14.9502 36.7506C15.0396 36.7733 15.1327 36.7759 15.2232 36.7584C15.9466 36.664 16.1052 35.5563 16.1067 35.5455C16.1109 35.5125 16.1253 35.4818 16.1479 35.4579C16.1705 35.434 16.2 35.4182 16.232 35.4128C16.264 35.4074 16.2969 35.4127 16.3257 35.428C16.3546 35.4433 16.3779 35.4676 16.3921 35.4975C16.4609 35.6351 16.5725 35.7453 16.7092 35.8106C16.846 35.8758 17.0001 35.8925 17.1472 35.858C17.4492 35.7837 17.6365 35.5006 17.6365 35.0984V33.2279C17.6367 33.205 17.6417 33.1825 17.6514 33.1619C17.6611 33.1413 17.6751 33.1232 17.6924 33.1088C17.7096 33.0942 17.7298 33.0837 17.7515 33.0781C17.7732 33.0725 17.7958 33.0719 17.8177 33.0763C17.8177 33.0763 18.5456 33.2171 18.8869 32.8334C19.2766 32.394 19.1784 30.8995 19.05 29.6448C18.9564 28.7413 18.3569 27.9754 17.8751 27.3581C17.5383 26.9281 17.2484 26.5567 17.194 26.221C17.0974 25.6285 16.9992 24.725 16.9645 24.3815H12.3901C12.4112 24.7234 12.4535 25.5109 12.4324 26.0091C12.4112 26.5072 11.857 27.9275 11.4508 28.9532C11.3269 29.2626 11.2197 29.5411 11.1487 29.7268C10.9509 30.2745 10.9675 31.246 10.9856 32.2749C10.9856 32.5843 10.9977 32.9092 10.9977 33.231V33.7384C10.9871 34.6992 10.9856 34.8477 11.49 35.1308C12.0171 35.4403 12.2844 35.0581 12.3131 35.0148C12.3285 34.991 12.3501 34.972 12.3754 34.96C12.4008 34.948 12.4288 34.9434 12.4566 34.9467C12.4841 34.95 12.5102 34.961 12.532 34.9785C12.5539 34.9959 12.5706 35.0192 12.5804 35.0458C12.6634 35.2732 12.9761 35.9292 13.3159 35.9663C13.6037 35.9848 13.8887 35.8988 14.1208 35.7234C14.149 35.7016 14.1837 35.6907 14.2189 35.6924V35.6878Z" fill="#093F68"/>
<path d="M17.7936 33.3826C17.7535 33.3826 17.7151 33.3663 17.6868 33.3373C17.6585 33.3083 17.6426 33.2689 17.6426 33.2279V31.0217C17.6426 30.9807 17.6585 30.9413 17.6868 30.9123C17.7151 30.8833 17.7535 30.867 17.7936 30.867C17.8336 30.867 17.8721 30.8833 17.9004 30.9123C17.9287 30.9413 17.9446 30.9807 17.9446 31.0217V33.2279C17.9446 33.2689 17.9287 33.3083 17.9004 33.3373C17.8721 33.3663 17.8336 33.3826 17.7936 33.3826Z" fill="#093F68"/>
<path d="M16.2562 35.7265C16.2161 35.7265 16.1777 35.7102 16.1494 35.6812C16.1211 35.6522 16.1052 35.6128 16.1052 35.5718V32.3228C16.1052 32.2818 16.1211 32.2424 16.1494 32.2134C16.1777 32.1844 16.2161 32.1681 16.2562 32.1681C16.2962 32.1681 16.3346 32.1844 16.363 32.2134C16.3913 32.2424 16.4072 32.2818 16.4072 32.3228V35.5718C16.4072 35.6128 16.3913 35.6522 16.363 35.6812C16.3346 35.7102 16.2962 35.7265 16.2562 35.7265Z" fill="#093F68"/>
<path d="M14.2205 36.0019C14.1804 36.0019 14.142 35.9856 14.1137 35.9566C14.0854 35.9275 14.0695 35.8882 14.0695 35.8472V32.2347C14.0695 32.1936 14.0854 32.1543 14.1137 32.1253C14.142 32.0962 14.1804 32.0799 14.2205 32.0799C14.2605 32.0799 14.2989 32.0962 14.3273 32.1253C14.3556 32.1543 14.3715 32.1936 14.3715 32.2347V35.8472C14.3715 35.8882 14.3556 35.9275 14.3273 35.9566C14.2989 35.9856 14.2605 36.0019 14.2205 36.0019Z" fill="#093F68"/>
<path d="M12.443 35.2577C12.4029 35.2577 12.3645 35.2414 12.3362 35.2124C12.3078 35.1834 12.2919 35.144 12.2919 35.103V32.4837C12.2919 32.4427 12.3078 32.4034 12.3362 32.3743C12.3645 32.3453 12.4029 32.329 12.443 32.329C12.483 32.329 12.5214 32.3453 12.5497 32.3743C12.5781 32.4034 12.594 32.4427 12.594 32.4837V35.103C12.594 35.144 12.5781 35.1834 12.5497 35.2124C12.5214 35.2414 12.483 35.2577 12.443 35.2577Z" fill="#093F68"/>
<path d="M11.7589 23.8385H17.4115V25.2556H11.7589V23.8385Z" fill="#093F68"/>
<path d="M17.4115 25.4088H11.7528C11.7128 25.4088 11.6744 25.3925 11.646 25.3635C11.6177 25.3345 11.6018 25.2951 11.6018 25.2541V23.8385C11.6018 23.7974 11.6177 23.7581 11.646 23.7291C11.6744 23.7001 11.7128 23.6838 11.7528 23.6838H17.4055C17.4455 23.6838 17.4839 23.7001 17.5123 23.7291C17.5406 23.7581 17.5565 23.7974 17.5565 23.8385V25.2541C17.5565 25.2941 17.5414 25.3325 17.5144 25.3613C17.4874 25.3902 17.4505 25.4072 17.4115 25.4088ZM11.9099 25.0994H17.2605V23.9932H11.9038L11.9099 25.0994Z" fill="#093F68"/>
</svg>
