<svg width="44" height="46" viewBox="0 0 44 46" fill="none" xmlns="http://www.w3.org/2000/svg">
<ellipse cx="22" cy="22.6846" rx="22" ry="22.5379" fill="#e2e8f0"/>
<path d="M22.678 26.3794C24.2548 26.3794 25.5331 25.041 25.5331 23.39C25.5331 21.7389 24.2548 20.4005 22.678 20.4005C21.1011 20.4005 19.8229 21.7389 19.8229 23.39C19.8229 25.041 21.1011 26.3794 22.678 26.3794Z" fill="#61DAFB"/>
<path d="M33.5224 18.4599C32.9714 18.2501 32.3953 18.0403 31.7943 17.8568C31.9445 17.2274 32.0698 16.598 32.1699 15.9949C32.6959 12.5334 32.1199 10.0946 30.517 9.15052C30.0411 8.86206 29.5152 8.73094 28.9141 8.73094C27.161 8.73094 24.932 10.0946 22.678 12.376C20.424 10.0946 18.195 8.73094 16.4419 8.73094C15.8408 8.73094 15.3148 8.86206 14.839 9.15052C13.2361 10.1208 12.6601 12.5596 13.186 15.9949C13.2862 16.598 13.4114 17.2274 13.5617 17.8568C12.9606 18.0403 12.3846 18.2239 11.8336 18.4599C8.70304 19.7186 7 21.4494 7 23.3899C7 25.3305 8.72809 27.0613 11.8336 28.32C12.3846 28.5298 12.9606 28.7396 13.5617 28.9231C13.4114 29.5525 13.2862 30.1819 13.186 30.785C12.6601 34.2465 13.2361 36.6853 14.839 37.6294C15.3148 37.9178 15.8408 38.049 16.4419 38.049C18.22 38.049 20.449 36.6853 22.678 34.4039C24.932 36.6853 27.161 38.049 28.9141 38.049C29.5152 38.049 30.0411 37.9178 30.517 37.6294C32.1199 36.6591 32.6959 34.2203 32.1699 30.785C32.0698 30.1819 31.9445 29.5525 31.7943 28.9231C32.3953 28.7396 32.9714 28.556 33.5224 28.32C36.653 27.0613 38.356 25.3305 38.356 23.3899C38.356 21.4494 36.653 19.7186 33.5224 18.4599ZM29.8157 10.4617C30.8426 11.0911 31.1932 13.0316 30.7674 15.7851C30.6923 16.3358 30.5671 16.9127 30.4168 17.5159C29.1145 17.2012 27.737 16.9914 26.2844 16.8603C25.4329 15.6015 24.5563 14.4739 23.6798 13.4512C25.5331 11.5369 27.4114 10.2257 28.9392 10.2257C29.2648 10.2257 29.5653 10.3044 29.8157 10.4617ZM27.0107 26.0123C26.5599 26.8515 26.034 27.6906 25.483 28.5298C24.5563 28.6084 23.6297 28.6347 22.678 28.6347C21.7013 28.6347 20.7746 28.6084 19.873 28.5298C19.322 27.6906 18.8211 26.8515 18.3703 26.0123C17.8945 25.1469 17.4436 24.2553 17.0429 23.3899C17.4436 22.5246 17.8945 21.633 18.3703 20.7676C18.8211 19.9284 19.347 19.0893 19.898 18.2501C20.8247 18.1714 21.7513 18.1452 22.703 18.1452C23.6798 18.1452 24.6064 18.1714 25.508 18.2501C26.059 19.0893 26.5599 19.9284 27.0107 20.7676C27.4866 21.633 27.9374 22.5246 28.3381 23.3899C27.9123 24.2553 27.4866 25.1207 27.0107 26.0123ZM29.0894 25.1469C29.4651 26.0648 29.7657 26.9564 30.0411 27.848C29.1896 28.0578 28.288 28.2151 27.3363 28.3462C27.6369 27.848 27.9624 27.3235 28.2379 26.7728C28.5385 26.2221 28.814 25.6714 29.0894 25.1469ZM22.678 32.2535C22.0769 31.5717 21.5009 30.8375 20.9499 30.077C21.5259 30.1032 22.102 30.1294 22.678 30.1294C23.254 30.1294 23.8301 30.1032 24.4061 30.077C23.8551 30.8375 23.2791 31.5717 22.678 32.2535ZM18.0197 28.32C17.068 28.1889 16.1664 28.0315 15.3148 27.8217C15.5903 26.9564 15.8909 26.0385 16.2665 25.1207C16.542 25.6452 16.8175 26.1959 17.1181 26.7203C17.4186 27.2973 17.7191 27.7955 18.0197 28.32ZM16.2665 21.633C15.8909 20.7151 15.5903 19.8235 15.3148 18.9319C16.1664 18.7221 17.068 18.5648 18.0197 18.4337C17.7191 18.9319 17.3936 19.4564 17.1181 20.0071C16.8175 20.5578 16.542 21.1085 16.2665 21.633ZM22.678 14.5264C23.2791 15.2082 23.8551 15.9424 24.4061 16.7029C23.8301 16.6767 23.254 16.6505 22.678 16.6505C22.102 16.6505 21.5259 16.6767 20.9499 16.7029C21.5009 15.9424 22.0769 15.2082 22.678 14.5264ZM28.2379 20.0333L27.3363 18.4599C28.288 18.591 29.1896 18.7484 30.0411 18.9582C29.7657 19.8235 29.4651 20.7414 29.0894 21.6592C28.814 21.1085 28.5385 20.5578 28.2379 20.0333ZM14.5886 15.7851C14.1628 13.0316 14.5134 11.0911 15.5402 10.4617C15.7907 10.3044 16.0912 10.2257 16.4168 10.2257C17.9195 10.2257 19.7979 11.5106 21.6762 13.4512C20.7996 14.4477 19.9231 15.6015 19.0716 16.8603C17.619 16.9914 16.2415 17.2274 14.9392 17.5159C14.7889 16.9127 14.6887 16.3358 14.5886 15.7851ZM8.4025 23.3899C8.4025 22.1574 9.83005 20.8463 12.3345 19.876C12.8354 19.6662 13.3864 19.4826 13.9374 19.3253C14.3381 20.6365 14.839 22.0263 15.4401 23.4162C14.839 24.806 14.3131 26.1696 13.9374 27.4808C10.4812 26.4319 8.4025 24.8585 8.4025 23.3899ZM15.5402 36.3182C14.5134 35.6888 14.1628 33.7483 14.5886 30.9948C14.6637 30.4441 14.7889 29.8672 14.9392 29.264C16.2415 29.5787 17.619 29.7885 19.0716 29.9196C19.9231 31.1784 20.7996 32.306 21.6762 33.3287C19.8229 35.243 17.9445 36.5542 16.4168 36.5542C16.0912 36.5542 15.7907 36.4755 15.5402 36.3182ZM30.7674 30.9948C31.1932 33.7483 30.8426 35.6888 29.8157 36.3182C29.5653 36.4755 29.2648 36.5542 28.9392 36.5542C27.4365 36.5542 25.5581 35.2692 23.6798 33.3287C24.5563 32.3322 25.4329 31.1784 26.2844 29.9196C27.737 29.7885 29.1145 29.5525 30.4168 29.264C30.5671 29.8672 30.6673 30.4441 30.7674 30.9948ZM33.0215 26.9039C32.5206 27.1137 31.9696 27.2973 31.4186 27.4546C31.0179 26.1434 30.517 24.7536 29.9159 23.3637C30.517 21.9739 31.0429 20.6102 31.4186 19.2991C34.8748 20.348 36.9535 21.9214 36.9535 23.3899C36.9535 24.6225 35.5009 25.9336 33.0215 26.9039Z" fill="#61DAFB"/>
</svg>
