<svg width="44" height="44" viewBox="0 0 44 44" fill="none" xmlns="http://www.w3.org/2000/svg">
<circle cx="22" cy="22" r="22" fill="#e2e8f0" fill-opacity="1"/>
<g clip-path="url(#clip0_0_1)">
<path d="M32.6011 12.0875C32.58 11.9324 32.4451 11.8467 32.3336 11.8373C32.2224 11.8279 29.8674 11.6522 29.8674 11.6522C29.8674 11.6522 28.2319 10.0178 28.0525 9.83693C27.8728 9.65608 27.5221 9.71108 27.3859 9.75146C27.3658 9.75741 27.0286 9.8622 26.4706 10.0359C25.9242 8.45349 24.9601 6.99919 23.2638 6.99919C23.217 6.99919 23.1688 7.00118 23.1206 7.0039C22.6381 6.36173 22.0405 6.08276 21.5244 6.08276C17.5731 6.08276 15.6853 11.0549 15.0933 13.5817C13.558 14.0606 12.4672 14.401 12.3279 14.4451C11.4708 14.7156 11.4438 14.7429 11.3313 15.5558C11.2464 16.1712 9.00391 33.6277 9.00391 33.6277L26.4777 36.9233L35.9458 34.8615C35.9458 34.8615 32.6221 12.2426 32.6011 12.0875ZM25.5048 10.3366C25.0659 10.4734 24.567 10.6287 24.0263 10.7972C24.0268 10.6924 24.0273 10.5891 24.0273 10.4764C24.0273 9.49281 23.8917 8.701 23.6741 8.07319C24.5481 8.18369 25.1302 9.18461 25.5048 10.3366ZM22.5899 8.26817C22.8328 8.88111 22.9908 9.76063 22.9908 10.9476C22.9908 11.0083 22.9904 11.0638 22.9899 11.12C22.0282 11.4198 20.9834 11.7454 19.9362 12.0719C20.5242 9.78763 21.6263 8.6844 22.5899 8.26817ZM21.4159 7.14958C21.5864 7.14958 21.7582 7.2078 21.9226 7.32177C20.6563 7.92157 19.2989 9.43236 18.7257 12.4492C17.8879 12.7103 17.069 12.9655 16.3119 13.2016C16.9834 10.9005 18.5778 7.14958 21.4159 7.14958Z" fill="#95BF46"/>
<path d="M32.3336 11.8372C32.2223 11.8278 29.8674 11.6522 29.8674 11.6522C29.8674 11.6522 28.2319 10.0178 28.0524 9.83691C27.9852 9.76952 27.8947 9.73508 27.7999 9.72021L26.4787 36.923L35.9457 34.8615C35.9457 34.8615 32.622 12.2426 32.6011 12.0875C32.58 11.9324 32.4451 11.8467 32.3336 11.8372Z" fill="#5E8E3E"/>
<path d="M23.2638 17.1032L22.0964 20.5987C22.0964 20.5987 21.0735 20.0492 19.8197 20.0492C17.9816 20.0492 17.8891 21.2104 17.8891 21.503C17.8891 23.0995 22.0235 23.7112 22.0235 27.4508C22.0235 30.3928 20.1697 32.2874 17.67 32.2874C14.6705 32.2874 13.1366 30.4082 13.1366 30.4082L13.9397 27.7372C13.9397 27.7372 15.5164 29.0998 16.847 29.0998C17.7163 29.0998 18.07 28.4108 18.07 27.9074C18.07 25.8248 14.6781 25.7319 14.6781 22.3099C14.6781 19.4298 16.7318 16.6426 20.8773 16.6426C22.4747 16.6426 23.2638 17.1032 23.2638 17.1032Z" fill="white"/>
</g>
<defs>
<clipPath id="clip0_0_1">
<rect width="27" height="31" fill="white" transform="translate(9 6)"/>
</clipPath>
</defs>
</svg>
