<svg width="44" height="44" viewBox="0 0 44 44" fill="none" xmlns="http://www.w3.org/2000/svg">
<circle cx="22" cy="22" r="22" fill="#e2e8f0"/>
<path d="M23 12C18.4667 12 15.6333 14.2667 14.5 18.8C16.2 16.5333 18.1833 15.6833 20.45 16.25C21.7433 16.5733 22.6676 17.5115 23.6908 18.5501C25.3575 20.2419 27.2866 22.2 31.5 22.2C36.0333 22.2 38.8667 19.9333 40 15.4C38.3 17.6667 36.3167 18.5167 34.05 17.95C32.7567 17.6267 31.8324 16.6885 30.8092 15.6499C29.1425 13.9581 27.2134 12 23 12ZM14.5 22.2C9.96667 22.2 7.13333 24.4667 6 29C7.7 26.7333 9.68333 25.8833 11.95 26.45C13.2433 26.7733 14.1676 27.7115 15.1908 28.7501C16.8575 30.4419 18.7866 32.4 23 32.4C27.5333 32.4 30.3667 30.1333 31.5 25.6C29.8 27.8667 27.8167 28.7167 25.55 28.15C24.2567 27.8267 23.3324 26.8885 22.3092 25.8499C20.6425 24.1581 18.7134 22.2 14.5 22.2Z" fill="url(#paint0_linear_0_1)"/>
<defs>
<linearGradient id="paint0_linear_0_1" x1="-235.778" y1="1017.31" x2="8095.19" y2="3906.88" gradientUnits="userSpaceOnUse">
<stop stop-color="#2298BD"/>
<stop offset="1" stop-color="#0ED7B5"/>
</linearGradient>
</defs>
</svg>
