<svg width="44" height="46" viewBox="0 0 44 46" fill="none" xmlns="http://www.w3.org/2000/svg">
<ellipse cx="22" cy="22.912" rx="22" ry="22.5379" fill="#e2e8f0"/>
<path d="M30.9002 7.82822H12.8702C9.62819 7.82822 7 10.5801 7 13.9748V32.8535C7 36.2481 9.62819 39 12.8702 39H30.9002C34.1422 39 36.7704 36.2481 36.7704 32.8535V13.9748C36.7704 10.5801 34.1422 7.82822 30.9002 7.82822Z" fill="white"/>
<mask id="mask0_0_1" style="mask-type:luminance" maskUnits="userSpaceOnUse" x="7" y="8" width="30" height="31">
<path d="M30.4809 8.26724H13.2895C10.0475 8.26724 7.41931 11.0191 7.41931 14.4138V32.4144C7.41931 35.809 10.0475 38.5609 13.2895 38.5609H30.4809C33.723 38.5609 36.3511 35.809 36.3511 32.4144V14.4138C36.3511 11.0191 33.723 8.26724 30.4809 8.26724Z" fill="white"/>
</mask>
<g mask="url(#mask0_0_1)">
<path d="M5.74207 22.536V38.5609H21.0466H36.3511V22.536V6.51108H21.0466H5.74207V22.536ZM30.4091 21.2591C31.1864 21.4626 31.7792 21.8238 32.3233 22.4139C32.6051 22.7293 33.023 23.3042 33.057 23.4415C33.0667 23.4822 31.7355 24.4183 30.9289 24.9423C30.8998 24.9626 30.7832 24.8304 30.652 24.6269C30.2584 24.0266 29.8455 23.7671 29.2139 23.7213C28.2859 23.6552 27.6883 24.1639 27.6931 25.0135C27.6931 25.2628 27.7271 25.4103 27.8243 25.6138C28.0284 26.0564 28.4073 26.3209 29.5977 26.8602C31.7889 27.8471 32.7266 28.4983 33.3096 29.4242C33.9607 30.4569 34.1064 32.1052 33.6643 33.3312C33.1785 34.6641 31.9735 35.5696 30.2779 35.8698C29.7532 35.9664 28.5094 35.9512 27.9458 35.8443C26.7165 35.6154 25.5505 34.9795 24.8314 34.1452C24.5496 33.8196 24.0006 32.97 24.0346 32.909C24.0492 32.8886 24.1755 32.8072 24.3164 32.7207C24.4524 32.6393 24.9675 32.329 25.4533 32.034L26.3327 31.4998L26.5173 31.7847C26.7748 32.1968 27.3384 32.7614 27.6785 32.9497C28.6551 33.4889 29.9961 33.4126 30.6569 32.792C30.9386 32.5223 31.0553 32.2425 31.0553 31.8305C31.0553 31.4591 31.0115 31.2963 30.8269 31.0165C30.5888 30.6604 30.103 30.3602 28.7231 29.7345C27.1441 29.0223 26.4639 28.5797 25.842 27.8777C25.4825 27.4707 25.1424 26.8195 25.0015 26.2752C24.8849 25.8224 24.8557 24.6879 24.948 24.2301C25.2735 22.6327 26.425 21.5186 28.0867 21.1879C28.626 21.0811 29.8795 21.1217 30.4091 21.2591ZM23.2232 22.5971L23.2329 23.9096H21.2409H19.2489V29.8363V35.7629H17.8399H16.4309V29.8363V23.9096H14.4389H12.4469V22.6225C12.4469 21.9103 12.4615 21.3151 12.4809 21.2998C12.4955 21.2795 14.9199 21.2693 17.8594 21.2744L23.2087 21.2896L23.2232 22.5971Z" fill="#007ACC"/>
</g>
</svg>
