<svg width="46" height="46" viewBox="0 0 46 46" fill="none" xmlns="http://www.w3.org/2000/svg">
<ellipse cx="23" cy="22.6846" rx="22" ry="22.5379" fill="#e2e8f0"/>
<path d="M22.8228 39.94C32.2764 39.94 39.94 32.2764 39.94 22.8228C39.94 13.3693 32.2764 5.70571 22.8228 5.70571C13.3693 5.70571 5.70569 13.3693 5.70569 22.8228C5.70569 32.2764 13.3693 39.94 22.8228 39.94Z" stroke="black" stroke-width="3.80381" stroke-linecap="round" stroke-linejoin="round"/>
<path d="M13.3134 19.019V22.8229C13.3134 23.8317 13.7141 24.7992 14.4275 25.5125C15.1408 26.2259 16.1083 26.6267 17.1172 26.6267C18.126 26.6267 19.0935 26.2259 19.8069 25.5125C20.5202 24.7992 20.921 23.8317 20.921 22.8229V19.019" stroke="black" stroke-width="3.80381" stroke-linecap="round" stroke-linejoin="round"/>
<path d="M26.6266 19.019L32.3324 26.6267" stroke="black" stroke-width="3.80381" stroke-linecap="round" stroke-linejoin="round"/>
<path d="M26.6266 26.6267L32.3324 19.019" stroke="black" stroke-width="3.80381" stroke-linecap="round" stroke-linejoin="round"/>
</svg>
