<svg width="44" height="44" viewBox="0 0 44 44" fill="none" xmlns="http://www.w3.org/2000/svg">
<circle cx="22" cy="22" r="22" fill="#e2e8f0" fill-opacity="1"/>
<g clip-path="url(#clip0_0_1)">
<path d="M35.8922 28.6672H8.10781C6.38125 28.6672 5 27.2859 5 25.5594V14.9344C5 13.2344 6.38125 11.8531 8.10781 11.8531H35.9187C37.6187 11.8531 39.0266 13.2344 39.0266 14.9609V25.5859C39 27.2859 37.6187 28.6672 35.8922 28.6672Z" fill="#7F54B3"/>
<path d="M8.66561 25.3734C8.66561 25.3734 9.40936 28.5078 10.9234 26.4094C12.4375 24.3109 13.8984 21.0172 13.8984 21.0172C13.8984 21.0172 14.0047 20.1937 14.4297 22C14.8547 23.8062 16.6875 26.25 16.6875 26.25C16.6875 26.25 18.3609 28.3484 19.0516 26.1437C18.7859 23.2219 19.7953 17.9094 20.8312 15.3594C21.2562 13.1016 18.8922 13.7391 18.6797 14.2703C18.4672 14.8016 17.0062 18.2016 16.9 21.7609C16.9 21.7609 15.6516 18.3609 15.5453 17.1391C15.4391 15.8906 14.1375 15.5719 13.3937 16.7672C12.65 17.9625 10.3922 22.5844 10.3922 22.5844L8.93124 15.0406C8.93124 15.0406 7.4703 13.1016 6.6203 15.4656C6.6203 15.4656 8.13436 24.7359 8.66561 25.3734Z" fill="white"/>
<path d="M28.1094 17.1391C25.8516 13.3672 22.5047 16.2359 22.5047 16.2359C22.5047 16.2359 19.9547 19.1844 21.0969 23.1953C22.9297 27.1531 25.5062 25.4 26.1969 25.0813C26.9141 24.7359 29.9422 21.2828 28.1094 17.1391ZM26.3828 20.4594C26.3828 22.0266 25.0812 23.4875 24.0187 23.1688C23.4344 22.8234 23.0625 21.8938 23.0625 20.3C23.5937 17.7234 24.7625 17.3781 25.3734 17.4313C26.5156 18.0422 26.4625 19.3969 26.3828 20.4594Z" fill="white"/>
<path d="M36.5828 17.1391C34.325 13.3672 30.9781 16.2359 30.9781 16.2359C30.9781 16.2359 28.4281 19.1844 29.5703 23.1953C31.4031 27.1531 33.9797 25.4 34.6703 25.0813C35.3609 24.7359 38.4156 21.2828 36.5828 17.1391ZM34.8563 20.4594C34.8563 22.0266 33.5547 23.4875 32.4922 23.1688C31.9078 22.8234 31.5359 21.8938 31.5359 20.3C32.0672 17.7234 33.2359 17.3781 33.8469 17.4313C34.9625 18.0422 34.9094 19.3969 34.8563 20.4594Z" fill="white"/>
<path d="M21.2828 28.6672L27.2063 32.1469L25.9578 28.6672L22.5578 27.7109L21.2828 28.6672Z" fill="#7F54B3"/>
</g>
<defs>
<clipPath id="clip0_0_1">
<rect width="34" height="34" fill="white" transform="translate(5 5)"/>
</clipPath>
</defs>
</svg>
