<svg width="44" height="44" viewBox="0 0 44 44" fill="white" xmlns="http://www.w3.org/2000/svg">
<circle cx="22" cy="22" r="22" fill="#e2e8f0" fill-opacity="1"/>
<g clip-path="url(#clip0_0_1)">
<path d="M6.48751 21.4994C6.48751 27.442 9.94084 32.577 14.9484 35.0108L7.78726 15.3898C6.9288 17.3121 6.48589 19.3941 6.48751 21.4994ZM31.6346 20.7419C31.6346 22.027 31.1407 23.5185 30.4914 25.5949L28.9942 30.5988L23.569 14.4608C24.4723 14.4134 25.2873 14.3177 25.2873 14.3177C26.096 14.222 26.0008 13.0334 25.191 13.0811C25.191 13.0811 22.76 13.2716 21.1901 13.2716C19.7149 13.2716 17.2357 13.0811 17.2357 13.0811C16.4267 13.0334 16.3319 14.2703 17.1409 14.3177C17.1409 14.3177 17.9067 14.4134 18.7151 14.4608L21.0544 20.869L17.7687 30.7222L12.3018 14.4611C13.2068 14.4137 14.0203 14.318 14.0203 14.318C14.8285 14.2223 14.733 13.0337 13.9238 13.0814C13.9238 13.0814 11.4931 13.2719 9.92284 13.2719C9.64118 13.2719 9.30896 13.2648 8.95674 13.2542C11.6411 9.17841 16.2553 6.48751 21.5 6.48751C25.4084 6.48751 28.9668 7.98151 31.638 10.4285C31.5729 10.4247 31.5098 10.4165 31.4432 10.4165C29.9689 10.4165 28.9225 11.7011 28.9225 13.0811C28.9225 14.3177 29.6355 15.3649 30.3965 16.6015C30.9681 17.6016 31.6346 18.8865 31.6346 20.7419ZM21.7634 22.8126L26.3785 35.455C26.4077 35.527 26.4434 35.5963 26.4853 35.6618C24.9248 36.2103 23.2482 36.5128 21.5 36.5128C20.0644 36.5128 18.6362 36.3067 17.2591 35.9009L21.7634 22.8126ZM34.6728 14.2968C35.8833 16.5043 36.5159 18.9819 36.5119 21.4994C36.5119 27.0381 33.5099 31.8734 29.0468 34.476L33.6325 21.2178C34.4895 19.0765 34.774 17.364 34.774 15.8405C34.774 15.2886 34.7374 14.775 34.6728 14.2968ZM21.5 4C31.149 4 39.0006 11.8502 39.0009 21.4994C39.0009 31.1501 31.149 39 21.5 39C11.8505 39 4 31.1498 4 21.4994C4 11.8502 11.8507 4 21.5 4ZM21.5 38.1976C30.7062 38.1976 38.1967 30.7068 38.1967 21.4994C38.1967 12.2929 30.7065 4.8027 21.5 4.8027C12.2929 4.8027 4.80241 12.2929 4.80241 21.4994C4.80241 30.7068 12.2932 38.1976 21.5 38.1976Z" fill="#00749A"/>
</g>
<defs>
<clipPath id="clip0_0_1">
<rect width="35" height="35" fill="white" transform="translate(4 4)"/>
</clipPath>
</defs>
</svg>
