<svg width="44" height="44" viewBox="0 0 44 44" fill="none" xmlns="http://www.w3.org/2000/svg">
<circle cx="22" cy="22" r="22" fill="#e2e8f0"/>
<g clip-path="url(#clip0_0_1)">
<path d="M35 35H10V10H35V35Z" fill="#FF80E4"/>
<path d="M35 35H22.5V10H35V35Z" fill="#FF80E4"/>
<path d="M33.5352 33.5352H11.4648V11.4648H33.5352V33.5352Z" fill="#7F1363"/>
<path d="M33.5352 33.5352H22.5V11.4648H33.5352V33.5352Z" fill="#7F1363"/>
<path d="M17.1514 18.8672L19.2256 21.961L21.2881 18.8672H23.0342L20.0694 23.086L22.9405 27.1875H21.1944L19.2256 24.211L17.2452 27.1875H15.4874L18.3585 23.086L15.3936 18.8672H17.1514Z" fill="#FF80E4"/>
<path d="M25.9053 27.3047C24.1025 27.3047 22.9873 25.802 22.9873 24.1172C22.9873 22.207 24.2734 20.9414 25.7295 20.9414C26.963 20.9414 27.6004 21.7734 27.8037 22.125V18.6328H29.374V25.3828C29.374 25.5469 29.6043 25.8438 29.7373 25.8515V27.1875C29.4637 27.2421 29.241 27.2695 29.0692 27.2695C27.9354 27.2695 28.038 26.1211 28.038 26.1211C27.8114 26.5118 27.1359 27.3047 25.9053 27.3047ZM26.3155 25.9687C27.3008 25.9687 27.749 25.086 27.8037 24.9375V23.4726C27.7411 23.3009 27.1787 22.2773 26.2217 22.2773C25.1523 22.2773 24.6163 23.3382 24.6163 24.1523C24.6163 25.0472 25.2744 25.9687 26.3155 25.9687Z" fill="#FF80E4"/>
<path d="M22.5 18.8671V19.6273L23.0342 18.8671H22.5Z" fill="#FF80E4"/>
<path d="M22.5 27.1875H22.9405L22.5 26.5582V27.1875Z" fill="#FF80E4"/>
</g>
<defs>
<clipPath id="clip0_0_1">
<path d="M10 20C10 14.4772 14.4772 10 20 10H25C30.5228 10 35 14.4772 35 20V25C35 30.5228 30.5228 35 25 35H20C14.4772 35 10 30.5228 10 25V20Z" fill="white"/>
</clipPath>
</defs>
</svg>
